<?xml version="1.0" encoding="UTF-8"?>
<svg id="svg10" width="1990" height="995" version="1.1" xmlns="http://www.w3.org/2000/svg">
 <rect id="rect1" y=".000292016" width="1990" height="995" style="fill:#071fb3;stroke-width:1.00101"/>
 <path id="path1" d="m0 2.92016e-4v950.031l330.076-328.262 316.784-161.309 310.138-140.316 150.638-93.9126 83.073-76.235 80.858-87.2835 35.717-62.7126z" style="fill:#000000"/>
 <path id="path2" d="m1308.88 2.9318e-4c-0.933 0.0149599-2.585 0.926944-3.607 1.56873-1.304 0.819194-9.252 8.81353-18.601 17.4757-10.097 9.35623-23.013 17.9022-28.104 22.8721-4.96 4.84178-11.377 19.71-11.669 23.3427-1.048 13.0656-2.913 19.7443-12.17 30.2765 1.201-11.0279 4.103-26.1688 4.642-38.7163 0.407-9.47912-3.102-7.3879-9.692 2.10209-4.553 6.5561-8.151 12.1536-9.316 21.3034-1.817 14.2671-2.286 19.2325-3.043 30.3392-0.522 7.6721-6.768 13.6445-9.096 15.6246 0.125-1.2089 0.64-6.0525 1.129-10.7615 1.151-11.0799 0.821-18.8877 0.878-40.1282 0.03-11.28-5.347-9.27485-11.041 1.38048-3.762 7.03997-7.868 15.1028-9.033 24.2526-1.818 14.2671-0.719 28.3397-0.973 39.4693-0.188 8.2767-7.305 13.6339-10.288 15.5304 0.01-1.3842 0.117-9.1808 0.188-14.0558 0.165-11.3488-0.06-33.2483-0.03-48.662 0.03-12.421-5.172-9.12642-11.135 1.38048-10.304 18.1556-12.636 28.5626-13.802 37.7123-1.817 14.2671-0.07 28.3412-0.376 39.4693-0.269 9.6122-8.651 14.7585-11.669 16.3148 0.1-1.4234 0.558-8.2064 0.628-12.9891 0.165-11.3488 0.06-48.1826 0.09-63.5963 0.03-12.421-5.46-9.5869-10.916-0.094-10.403 18.099-15.933 31.3782-17.973 46.6854-2.584 19.3877-2.574 35.4318-2.886 46.5599-0.279 9.97-9.753 15.3196-12.578 16.6913 0.124-1.2292 0.729-7.7423 1.066-16.2521 1.12-28.233-0.733-41.7256 0.314-78.3737 0.355-12.416-5.093-8.6002-13.048 1.0667-13.579 16.4992-19.478 32.6332-21.518 47.9404-2.584 19.3877-3.235 49.4017-3.764 60.5216-0.567 11.9002-9.848 17.6515-13.582 19.515 0.102-1.0061 0.785-7.7599 1.129-16.4403 1.12-28.233 1.243-59.8287 2.29-96.4769 0.355-12.4159-4.905-8.7596-11.919-0.063-14.894 18.465-26.716 44.9421-29.517 68.6163-2.297 19.4237-4.207 48.7742-4.736 59.8941-0.586 12.3154-11.1916 17.9479-14.8681 19.5464 0.6121-4.4458 3.3085-24.2742 3.6386-32.5982 1.1196-28.2331 2.9877-65.5191 5.1755-101.026 0.7639-12.3975-4.1499-10.7228-11.4803-2.2903-21.2309 24.4233-33.6714 53.4288-37.2325 81.7936-2.4364 19.4068-5.5906 58.7265-6.242 69.8399-0.7226 12.33-12.2243 17.4456-15.307 18.6051 0.096-2.0882 1.0275-22.6085 1.3801-31.5001 1.1196-28.233 4.0542-81.8338 6.242-117.341 0.7639-12.3975-4.244-10.6601-11.5744-2.2276-21.2309 24.4233-35.1195 50.6646-39.7418 78.8757-2.9742 18.1518-6.252 73.2028-6.3361 84.335-0.1141 15.1011-14.9563 21.2565-17.9419 22.3387 0.2068-3.6904 6.4899-115.675 9.065-164.717 0.6986-13.3029-4.6205-12.0092-11.9508-3.5767-21.2309 24.4233-39.0653 67.9036-44.3214 100.932-2.8908 18.1653-5.3539 65.8611-5.4265 76.9933-0.1084 16.6217-16.4585 23.1173-21.204 24.6605 0.1536-1.8906 1.9343-24.2258 3.9836-59.0784 2.5479-43.3326 5.5095-102.705 6.9321-129.797 0.6985-13.303-4.991-11.8617-12.4527-3.5453-25.6669 28.6068-43.5046 70.1597-47.1131 97.2299-2.4304 18.2326-7.2624 96.4511-7.3085 107.584-0.058 14.153-20.0497 19.6069-23.1174 20.3621 0.1275-2.4015 9.7939-184.872 11.1353-208.453 0.7566-13.2998-3.6584-12.4584-12.9232-3.2944-25.3639 25.088-50.0009 65.8432-56.3977 113.451-2.4495 18.23-8.3289 101.189-8.3749 112.321-0.056 13.5763-18.8612 20.3681-23.1488 21.7426 0.026-1.4528 3.7146-202.691 4.0777-226.431 0.2037-13.3197-4.223-12.1132-13.4878-2.9492-25.3639 25.088-54.2854 68.4811-61.9496 125.216-2.4624 18.2283-9.0437 114.87-8.8455 126 0.2192 12.3105-17.2456 19.8316-21.9882 21.6485 0.023-1.5783 3.2441-225.341 3.6072-249.083 0.2037-13.3198-5.7775-12.9647-14.1151-2.9492-23.5716 28.3151-58.5827 75.6479-63.7375 149.594-1.2792 18.3494-6.7104 120.393-5.8343 131.491 0.851 10.7791-13.9427 19.5751-18.7574 22.1505-0.1277-2.9825-10.8776-253.967-11.7626-274.622-0.5702-13.3091-7.5425-12.9652-15.1502-2.3844-21.5437 29.9631-51.8685 70.3132-60.3186 150.598-1.9253 18.2928-1.4428 156.91-1.4428 168.042 0 12.351-17 22.1516-20.9845 24.2839-0.144-3.0559-13.9589-297.104-13.9589-317.793 0-9.5078-7.668-13.0908-15.2757-2.51-21.5437 29.9631-47.5247 71.6078-58.7502 132.809-9.4361 51.4453-6.6305 112.732-3.8267 161.956 1.8266 32.0693 5.4303 61.8483 7.1203 78.0601 1.3618 13.0642-14.9158 23.7098-19.4789 26.4174-0.324-2.9298-36.275-327.77-38.5185-351.929-0.7603-8.1867-9.5054-12.6107-16.7186-1.757-18.8731 28.3984-44.6861 85.9814-52.0063 129.452-12.6099 74.8827-4.7528 114.728-0.40777 166.725 2.9151 34.8845 15.4823 105.469 19.2279 126 1.525 8.3593-8.0861 16.7669-12.3586 20.8955l-102.598 99.395v104.212s38.4808-49.0803 78.2604-94.8311c37.6465-43.2975 76.7182-83.8134 80.5816-87.1901 11.1882-9.7784 23.5417-7.8179 33.4685-3.859 46.9567 18.7264 151.91 70.285 203.916 80.3189 41.518 8.0105 89.8401 11.4668 123.742 7.8751 11.4245-1.2104 12.6958-8.9491 5.8028-13.4284-47.4267-30.8194-260.271-169.57-263.607-171.745 3.6718-3.7204 18.3148-17.1695 31.9001-10.0712 64.6307 33.7692 106.809 65.3296 166.339 90.5157 42.7744 18.0974 101.437 31.3941 138.328 32.1276 13.0272 0.2591 12.4529-6.7859 4.6423-12.2047-22.5396-15.6374-213.025-177.148-228.163-186.679 4.3586-3.2479 19.5639-13.4171 30.5514-6.4318 10.9634 6.97 82.7968 64.8557 98.5234 74.3892 75.1699 45.5682 151.949 55.5506 172.644 56.5998 13.013 0.6597 15.5496-4.1803 5.6146-13.0518-10.053-8.977-97.2088-83.2834-153.133-134.001-27.7278-25.1462-47.0059-39.4281-50.2811-41.8223 4.3525-2.7108 19.4724-11.1068 29.5476-3.8277 10.5302 7.6077 68.1202 55.6697 97.1119 71.7537 64.0779 35.5488 131.318 45.5227 158.591 45.4304 10.6397-0.036 14.0589-5.1739 4.5482-12.7695-10.5743-8.445-81.754-67.4355-130.737-106.642-32.7202-26.1896-60.0054-42.0806-63.3298-43.9872 4.163-2.4083 22.0066-11.9491 31.9002-4.267 8.7917 6.8265 75.6585 53.5576 101.692 66.7965 48.6979 24.7651 98.5445 33.8758 139.583 34.5435 14.7893 0.2406 15.9675-3.3868 6.242-11.1694-13.6384-10.9137-101.34-76.9972-128.447-97.1671-26.0215-19.3616-47.7723-30.9476-51.3477-32.8179 4.0437-2.4143 18.7778-10.241 29.83-3.2002 11.4765 7.3112 76.6954 48.2131 93.7243 55.1566 44.1918 18.019 78.0658 24.1107 109.22 25.0055 15.5759 0.4474 19.4481-4.0888 8.1868-11.2007-28.3405-17.898-75.2903-53.6538-106.616-74.0441-27.1753-17.6886-47.4986-26.8825-50.4066-28.1744 3.1358-2.007 15.1087-8.727 26.9755-2.7923 9.9548 4.9785 61.0232 32.6173 95.0104 44.8029 27.7922 9.9646 64.2984 16.3689 102.727 16.4717 12.9558 0.035 15.6354-4.0121 4.1718-10.7929-23.3456-13.8089-79.3547-46.9825-117.469-67.7377-15.4409-8.4084-31.5421-14.6003-35.1937-15.9697 3.2913-2.2669 16.8475-10.3605 31.2415-1.506 9.4802 5.8322 63.4963 30.4874 81.0834 35.8612 29.7206 9.0812 76.9242 12.6609 93.2852 10.9811 11.113-1.141 13.692-4.4684 2.039-10.9184-19.915-11.023-88.8211-48.4382-101.127-54.0898-19.5525-8.9797-32.6108-14.0067-36.417-15.4363 3.6193-3.0505 13.9707-10.237 26.16-4.4238 10.0463 4.7909 57.1239 26.7854 82.777 31.5628 26.443 4.9244 58.007 6.6009 84.66 1.4746 13.309-2.5599 17.127-6.562 5.646-11.2948-32.883-13.555-80.93-33.9063-106.805-45.2422-7.0582-3.0922-20.2337-8.2692-25.4699-10.3222 3.2922-2.5694 11.4743-7.5958 21.8-4.0788 10.5357 3.5886 48.7607 17.3989 67.7207 22.1819 22.23 5.6074 64.384 3.6064 88.016-2.008 10.869-2.5823 15.249-7.0439 3.482-11.0125-33.702-11.3665-58.284-19.7856-84.848-29.398-6.538-2.3658-27.499-8.1065-37.86-10.9183 3.088-3.1306 10.721-9.188 21.581-6.2122 10.734 2.9413 27.663 6.8444 46.768 11.0125 24.893 5.4307 53.265 5.2874 80.048-1.4746 12.097-3.0541 17.59-8.3509 5.678-11.8596-38.754-10.171-62.931-20.3893-99.277-28.4882 1.338-1.962 5.331-5.8182 15.496-4.612 11.523 1.3674 34.039 8.2925 58.342 7.9691 15.438-0.2054 35.293-4.4411 55.174-12.2675 7.387-2.9079 12.19-8.6003-0.125-10.1967-33.813-4.3833-49.035-8.7648-68.976-11.5145-8.328-1.1483-15.003-1.7046-16.436-1.8197 2.063-2.4402 6.949-6.7964 15.401-6.6514 11.128 0.1909 27.702 4.1206 47.176 2.3531 10.899-0.9892 28.702-5.9746 45.545-14.1186 9.855-4.7656 13.065-10.008 0.658-10.5419-15.396-0.6624-43.832-2.6025-55.174-2.9492-4.498-0.1375-12.006 0.051-14.523 0.1255 1.143-1.7667 5.933-8.0678 15.997-8.4398 11.122-0.411 29.824-0.063 44.071-2.0079 9.136-1.2474 16.246-2.9529 32.809-15.656 9.057-6.9457 13.578-11.9345 1.161-11.7968-15.409 0.1707-28.178 0.4237-39.522 0.6902-4.907 0.1155-14.985 0.8834-16.562 1.004 0.796-1.5382 3.703-5.7652 12.108-7.122 11.112-1.7938 23.51-1.4381 37.107-6.1181 8.719-3.0013 15.579-7.5913 21.706-12.7067 9.272-7.7425 9.601-12.7212-3.765-10.6673-20.989 3.2252-13.599 1.6217-24.591 3.7335-4.771 0.9167-14.649 3.0141-16.405 3.3885 0.833-1.6239 3.71-6.0389 11.104-8.0005 10.757-2.8541 10.295-1.5619 23.901-6.2122 6.34-2.1666 14.913-7.86805 20.483-13.5852 8.062-8.27558 9.634-11.6766 0.408-9.47513-11.881 2.83501-24.927 8.01175-35.351 11.2949 5.594-6.02238 8.281-9.66791 20.765-15.0284 12.559-5.39249 20.077-13.206 22.992-22.8407 0.984-3.31146 4.243-17.1282 7.654-29.2411 3.05-10.8344 6.544-20.0213 6.963-22.0563 0.555-2.69392 0.02-4.2605-1.537-4.23557z" style="fill:#ffffff"/>
 <path id="path3" d="m1566.28 125.627-22.244 67.4688-71.085 0.375 57.457 41.9375-21.617 67.5625 57.708-41.5625 57.77 41.4062-21.805-67.625 57.332-41.9687-71.21-0.25z" style="fill:#ffffff"/>
 <path id="path4" d="m1754.91 300.317-19.926 60.4375-63.691 0.3438 51.473 37.5625-19.361 60.5312 51.724-37.25 51.723 37.0938-19.517-60.5625 51.347-37.625-63.785-0.1875z" style="fill:#ffffff"/>
 <path id="path5" d="m1350.96 347.035-22.4 68.0312-71.711 0.375 57.958 42.2813-21.805 68.125 58.209-41.9063 58.24 41.75-21.962-68.1875 57.771-42.3437-71.775-0.2188z" style="fill:#ffffff"/>
 <path id="path6" d="m1566.75 685.198-23.434 71.1563-75.001 0.375 60.59 44.25-22.807 71.25 60.903-43.8125 60.903 43.6562-22.964-71.3125 60.433-44.2812-75.095-0.25z" style="fill:#ffffff"/>
 <path id="path7" d="m1565.68 165.283-13.064 39.6875-41.855 0.2187 33.804 24.6875-12.72 39.7501 33.96-24.4375 33.992 24.3437-12.813-39.7812 33.709-24.7188-41.886-0.125z" style="fill:#d10000"/>
 <path id="path8" d="m1754.38 335.848-11.717 35.5625-37.5 0.1875 30.294 22.0937-11.403 35.625 30.451-21.9062 30.42 21.8125-11.466-35.625 30.201-22.125-37.532-0.125z" style="fill:#d10000"/>
 <path id="path9" d="m1350.36 387.004-13.158 40.0313-42.2 0.2187 34.086 24.875-12.814 40.0938 34.242-24.6563 34.274 24.5625-12.939-40.125 33.992-24.9062-42.231-0.125z" style="fill:#d10000"/>
 <path id="path10" d="m1566.12 727.011-13.785 41.875-44.142 0.2188 35.683 26.0312-13.44 41.9375 35.84-25.7812 35.84 25.6875-13.534-41.9688 35.59-26.0625-44.205-0.1562z" style="fill:#d10000"/>
</svg>
